<?xml version="1.0" encoding="UTF-8" standalone="no"?>
<!DOCTYPE svg PUBLIC "-//W3C//DTD SVG 1.1//EN" "http://www.w3.org/Graphics/SVG/1.1/DTD/svg11.dtd">
<svg width="100%" height="100%" viewBox="0 0 45 33" version="1.1" xmlns="http://www.w3.org/2000/svg" xmlns:xlink="http://www.w3.org/1999/xlink" xml:space="preserve" xmlns:serif="http://www.serif.com/" style="fill-rule:evenodd;clip-rule:evenodd;stroke-linejoin:round;stroke-miterlimit:2;">
    <g transform="matrix(1,0,0,1,-9.75096,-15.8689)">
        <g transform="matrix(1,0,0,1,0,-2.82833)">
            <g transform="matrix(1,0,0,1,-0.16608,0)">
                <path d="M52.878,36.77C52.878,34.159 50.759,32.04 48.148,32.04L16.184,32.04C13.574,32.04 11.454,34.159 11.454,36.77L11.454,46.23C11.454,48.84 13.574,50.959 16.184,50.959C26.625,42.616 37.292,43.122 48.148,50.959C50.759,50.959 52.878,48.84 52.878,46.23L52.878,36.77Z"/>
            </g>
            <g transform="matrix(1,0,0,1.56881,-3.48584,4.0166)">
                <path d="M57.735,16.989C57.735,12.777 52.37,9.358 45.762,9.358L25.209,9.358C18.601,9.358 13.237,12.777 13.237,16.989L13.237,18.685C13.237,22.897 18.601,26.317 25.209,26.317L45.762,26.317C52.37,26.317 57.735,22.897 57.735,18.685L57.735,16.989Z" style="fill:white;"/>
            </g>
            <g transform="matrix(0.110266,0,0,0.497835,28.0871,28.5369)">
                <path d="M57.735,13.793C57.735,11.345 48.762,9.358 37.711,9.358L33.261,9.358C22.209,9.358 13.237,11.345 13.237,13.793L13.237,21.882C13.237,24.33 22.209,26.317 33.261,26.317L37.711,26.317C48.762,26.317 57.735,24.33 57.735,21.882L57.735,13.793Z"/>
            </g>
            <g transform="matrix(0.110266,0,0,0.497835,37.2481,28.5369)">
                <path d="M57.735,13.793C57.735,11.345 48.762,9.358 37.711,9.358L33.261,9.358C22.209,9.358 13.237,11.345 13.237,13.793L13.237,21.882C13.237,24.33 22.209,26.317 33.261,26.317L37.711,26.317C48.762,26.317 57.735,24.33 57.735,21.882L57.735,13.793Z"/>
            </g>
            <g transform="matrix(0.110266,0,0,0.497835,19.0058,28.5369)">
                <path d="M57.735,13.793C57.735,11.345 48.762,9.358 37.711,9.358L33.261,9.358C22.209,9.358 13.237,11.345 13.237,13.793L13.237,21.882C13.237,24.33 22.209,26.317 33.261,26.317L37.711,26.317C48.762,26.317 57.735,24.33 57.735,21.882L57.735,13.793Z"/>
            </g>
        </g>
    </g>
</svg>
